<mxfile host="Electron" agent="Mozilla/5.0 (Macintosh; Intel Mac OS X 10_15_7) AppleWebKit/537.36 (KHTML, like Gecko) draw.io/27.0.2 Chrome/134.0.6998.205 Electron/35.3.0 Safari/537.36" version="27.0.2">
  <diagram name="Page-1" id="EInWyaiCCA0Ft4_SJ0qV">
    <mxGraphModel dx="1186" dy="3116" grid="0" gridSize="10" guides="1" tooltips="1" connect="1" arrows="1" fold="1" page="1" pageScale="1" pageWidth="850" pageHeight="1100" math="0" shadow="0">
      <root>
        <mxCell id="0" />
        <mxCell id="1" parent="0" />
        <mxCell id="PF4e_UDldRz6OcNP83BT-1" value="admin" style="shape=umlFrame;whiteSpace=wrap;html=1;pointerEvents=0;" vertex="1" parent="1">
          <mxGeometry x="160" y="-352" width="517" height="1501" as="geometry" />
        </mxCell>
        <mxCell id="PF4e_UDldRz6OcNP83BT-11" style="edgeStyle=none;shape=connector;rounded=0;orthogonalLoop=1;jettySize=auto;html=1;exitX=1;exitY=0.3333333333333333;exitDx=0;exitDy=0;exitPerimeter=0;entryX=0;entryY=0.5;entryDx=0;entryDy=0;strokeColor=default;align=center;verticalAlign=middle;fontFamily=Helvetica;fontSize=11;fontColor=default;labelBackgroundColor=default;startFill=0;endArrow=none;" edge="1" parent="1" source="PF4e_UDldRz6OcNP83BT-2" target="PF4e_UDldRz6OcNP83BT-4">
          <mxGeometry relative="1" as="geometry" />
        </mxCell>
        <mxCell id="PF4e_UDldRz6OcNP83BT-21" style="edgeStyle=none;shape=connector;rounded=0;orthogonalLoop=1;jettySize=auto;html=1;exitX=1;exitY=0.3333333333333333;exitDx=0;exitDy=0;exitPerimeter=0;entryX=0;entryY=0.5;entryDx=0;entryDy=0;strokeColor=default;align=center;verticalAlign=middle;fontFamily=Helvetica;fontSize=11;fontColor=default;labelBackgroundColor=default;startFill=0;endArrow=none;" edge="1" parent="1" source="PF4e_UDldRz6OcNP83BT-2" target="PF4e_UDldRz6OcNP83BT-20">
          <mxGeometry relative="1" as="geometry" />
        </mxCell>
        <mxCell id="PF4e_UDldRz6OcNP83BT-25" style="edgeStyle=none;shape=connector;rounded=0;orthogonalLoop=1;jettySize=auto;html=1;exitX=1;exitY=0.3333333333333333;exitDx=0;exitDy=0;exitPerimeter=0;entryX=0;entryY=0.5;entryDx=0;entryDy=0;strokeColor=default;align=center;verticalAlign=middle;fontFamily=Helvetica;fontSize=11;fontColor=default;labelBackgroundColor=default;startFill=0;endArrow=none;" edge="1" parent="1" source="PF4e_UDldRz6OcNP83BT-2" target="PF4e_UDldRz6OcNP83BT-23">
          <mxGeometry relative="1" as="geometry" />
        </mxCell>
        <mxCell id="PF4e_UDldRz6OcNP83BT-27" style="edgeStyle=none;shape=connector;rounded=0;orthogonalLoop=1;jettySize=auto;html=1;exitX=1;exitY=0.3333333333333333;exitDx=0;exitDy=0;exitPerimeter=0;entryX=0;entryY=0.5;entryDx=0;entryDy=0;strokeColor=default;align=center;verticalAlign=middle;fontFamily=Helvetica;fontSize=11;fontColor=default;labelBackgroundColor=default;startFill=0;endArrow=none;" edge="1" parent="1" source="PF4e_UDldRz6OcNP83BT-2" target="PF4e_UDldRz6OcNP83BT-26">
          <mxGeometry relative="1" as="geometry" />
        </mxCell>
        <mxCell id="PF4e_UDldRz6OcNP83BT-32" style="edgeStyle=none;shape=connector;rounded=0;orthogonalLoop=1;jettySize=auto;html=1;exitX=1;exitY=0.3333333333333333;exitDx=0;exitDy=0;exitPerimeter=0;entryX=0;entryY=0.5;entryDx=0;entryDy=0;strokeColor=default;align=center;verticalAlign=middle;fontFamily=Helvetica;fontSize=11;fontColor=default;labelBackgroundColor=default;startFill=0;endArrow=none;" edge="1" parent="1" source="PF4e_UDldRz6OcNP83BT-2" target="PF4e_UDldRz6OcNP83BT-29">
          <mxGeometry relative="1" as="geometry" />
        </mxCell>
        <mxCell id="PF4e_UDldRz6OcNP83BT-34" style="edgeStyle=none;shape=connector;rounded=0;orthogonalLoop=1;jettySize=auto;html=1;exitX=1;exitY=0.3333333333333333;exitDx=0;exitDy=0;exitPerimeter=0;entryX=0;entryY=0.5;entryDx=0;entryDy=0;strokeColor=default;align=center;verticalAlign=middle;fontFamily=Helvetica;fontSize=11;fontColor=default;labelBackgroundColor=default;startFill=0;endArrow=none;" edge="1" parent="1" source="PF4e_UDldRz6OcNP83BT-2" target="PF4e_UDldRz6OcNP83BT-31">
          <mxGeometry relative="1" as="geometry" />
        </mxCell>
        <mxCell id="PF4e_UDldRz6OcNP83BT-36" style="edgeStyle=none;shape=connector;rounded=0;orthogonalLoop=1;jettySize=auto;html=1;exitX=1;exitY=0.3333333333333333;exitDx=0;exitDy=0;exitPerimeter=0;entryX=0;entryY=0.5;entryDx=0;entryDy=0;strokeColor=default;align=center;verticalAlign=middle;fontFamily=Helvetica;fontSize=11;fontColor=default;labelBackgroundColor=default;startFill=0;endArrow=none;" edge="1" parent="1" source="PF4e_UDldRz6OcNP83BT-2" target="PF4e_UDldRz6OcNP83BT-30">
          <mxGeometry relative="1" as="geometry" />
        </mxCell>
        <mxCell id="PF4e_UDldRz6OcNP83BT-42" style="edgeStyle=none;shape=connector;rounded=0;orthogonalLoop=1;jettySize=auto;html=1;exitX=1;exitY=0.3333333333333333;exitDx=0;exitDy=0;exitPerimeter=0;entryX=0;entryY=0.5;entryDx=0;entryDy=0;strokeColor=default;align=center;verticalAlign=middle;fontFamily=Helvetica;fontSize=11;fontColor=default;labelBackgroundColor=default;startFill=0;endArrow=none;" edge="1" parent="1" source="PF4e_UDldRz6OcNP83BT-2" target="PF4e_UDldRz6OcNP83BT-38">
          <mxGeometry relative="1" as="geometry" />
        </mxCell>
        <mxCell id="PF4e_UDldRz6OcNP83BT-43" style="edgeStyle=none;shape=connector;rounded=0;orthogonalLoop=1;jettySize=auto;html=1;exitX=1;exitY=0.3333333333333333;exitDx=0;exitDy=0;exitPerimeter=0;entryX=0;entryY=0.5;entryDx=0;entryDy=0;strokeColor=default;align=center;verticalAlign=middle;fontFamily=Helvetica;fontSize=11;fontColor=default;labelBackgroundColor=default;startFill=0;endArrow=none;" edge="1" parent="1" source="PF4e_UDldRz6OcNP83BT-2" target="PF4e_UDldRz6OcNP83BT-39">
          <mxGeometry relative="1" as="geometry" />
        </mxCell>
        <mxCell id="PF4e_UDldRz6OcNP83BT-46" style="edgeStyle=none;shape=connector;rounded=0;orthogonalLoop=1;jettySize=auto;html=1;exitX=1;exitY=0.3333333333333333;exitDx=0;exitDy=0;exitPerimeter=0;entryX=0;entryY=0.5;entryDx=0;entryDy=0;strokeColor=default;align=center;verticalAlign=middle;fontFamily=Helvetica;fontSize=11;fontColor=default;labelBackgroundColor=default;startFill=0;endArrow=none;" edge="1" parent="1" source="PF4e_UDldRz6OcNP83BT-2" target="PF4e_UDldRz6OcNP83BT-40">
          <mxGeometry relative="1" as="geometry" />
        </mxCell>
        <mxCell id="PF4e_UDldRz6OcNP83BT-2" value="admn" style="shape=umlActor;verticalLabelPosition=bottom;verticalAlign=top;html=1;" vertex="1" parent="1">
          <mxGeometry x="65" y="445" width="30" height="60" as="geometry" />
        </mxCell>
        <mxCell id="PF4e_UDldRz6OcNP83BT-4" value="show all user" style="ellipse;whiteSpace=wrap;html=1;" vertex="1" parent="1">
          <mxGeometry x="359" y="752" width="140" height="70" as="geometry" />
        </mxCell>
        <mxCell id="PF4e_UDldRz6OcNP83BT-20" value="edit , delete patient" style="ellipse;whiteSpace=wrap;html=1;fontFamily=Helvetica;fontSize=11;fontColor=default;labelBackgroundColor=default;" vertex="1" parent="1">
          <mxGeometry x="359" y="668" width="140" height="70" as="geometry" />
        </mxCell>
        <mxCell id="PF4e_UDldRz6OcNP83BT-23" value="edit , delete doctore" style="ellipse;whiteSpace=wrap;html=1;fontFamily=Helvetica;fontSize=11;fontColor=default;labelBackgroundColor=default;" vertex="1" parent="1">
          <mxGeometry x="365.5" y="585" width="140" height="70" as="geometry" />
        </mxCell>
        <mxCell id="PF4e_UDldRz6OcNP83BT-26" value="edit , delete pharmacy" style="ellipse;whiteSpace=wrap;html=1;fontFamily=Helvetica;fontSize=11;fontColor=default;labelBackgroundColor=default;" vertex="1" parent="1">
          <mxGeometry x="365.5" y="503" width="140" height="70" as="geometry" />
        </mxCell>
        <mxCell id="PF4e_UDldRz6OcNP83BT-29" value="show all patient" style="ellipse;whiteSpace=wrap;html=1;fontFamily=Helvetica;fontSize=11;fontColor=default;labelBackgroundColor=default;" vertex="1" parent="1">
          <mxGeometry x="359" y="419" width="140" height="70" as="geometry" />
        </mxCell>
        <mxCell id="PF4e_UDldRz6OcNP83BT-30" value="show all doctor" style="ellipse;whiteSpace=wrap;html=1;fontFamily=Helvetica;fontSize=11;fontColor=default;labelBackgroundColor=default;" vertex="1" parent="1">
          <mxGeometry x="352" y="252" width="140" height="70" as="geometry" />
        </mxCell>
        <mxCell id="PF4e_UDldRz6OcNP83BT-31" value="show all pharmacy" style="ellipse;whiteSpace=wrap;html=1;fontFamily=Helvetica;fontSize=11;fontColor=default;labelBackgroundColor=default;" vertex="1" parent="1">
          <mxGeometry x="358" y="336" width="140" height="70" as="geometry" />
        </mxCell>
        <mxCell id="PF4e_UDldRz6OcNP83BT-38" value="show all payment" style="ellipse;whiteSpace=wrap;html=1;fontFamily=Helvetica;fontSize=11;fontColor=default;labelBackgroundColor=default;" vertex="1" parent="1">
          <mxGeometry x="365.5" y="860" width="140" height="70" as="geometry" />
        </mxCell>
        <mxCell id="PF4e_UDldRz6OcNP83BT-39" value="show all factor" style="ellipse;whiteSpace=wrap;html=1;fontFamily=Helvetica;fontSize=11;fontColor=default;labelBackgroundColor=default;" vertex="1" parent="1">
          <mxGeometry x="368" y="943" width="140" height="70" as="geometry" />
        </mxCell>
        <mxCell id="PF4e_UDldRz6OcNP83BT-40" value="show all factor" style="ellipse;whiteSpace=wrap;html=1;fontFamily=Helvetica;fontSize=11;fontColor=default;labelBackgroundColor=default;" vertex="1" parent="1">
          <mxGeometry x="365.5" y="1030" width="140" height="70" as="geometry" />
        </mxCell>
        <mxCell id="PF4e_UDldRz6OcNP83BT-47" value="access" style="shape=umlFrame;whiteSpace=wrap;html=1;pointerEvents=0;fontFamily=Helvetica;fontSize=11;fontColor=default;labelBackgroundColor=default;" vertex="1" parent="1">
          <mxGeometry x="148" y="-1710" width="602" height="1285" as="geometry" />
        </mxCell>
        <mxCell id="PF4e_UDldRz6OcNP83BT-48" value="delete permission" style="ellipse;whiteSpace=wrap;html=1;" vertex="1" parent="1">
          <mxGeometry x="273" y="-1418" width="140" height="70" as="geometry" />
        </mxCell>
        <mxCell id="PF4e_UDldRz6OcNP83BT-49" value="add role" style="ellipse;whiteSpace=wrap;html=1;" vertex="1" parent="1">
          <mxGeometry x="498" y="-1296" width="140" height="70" as="geometry" />
        </mxCell>
        <mxCell id="PF4e_UDldRz6OcNP83BT-50" value="show all permission" style="ellipse;whiteSpace=wrap;html=1;fontFamily=Helvetica;fontSize=11;fontColor=default;labelBackgroundColor=default;" vertex="1" parent="1">
          <mxGeometry x="498" y="-1509" width="140" height="70" as="geometry" />
        </mxCell>
        <mxCell id="PF4e_UDldRz6OcNP83BT-51" value="show all role" style="ellipse;whiteSpace=wrap;html=1;fontFamily=Helvetica;fontSize=11;fontColor=default;labelBackgroundColor=default;" vertex="1" parent="1">
          <mxGeometry x="498" y="-1172" width="140" height="70" as="geometry" />
        </mxCell>
        <mxCell id="PF4e_UDldRz6OcNP83BT-52" value="show all admin" style="ellipse;whiteSpace=wrap;html=1;fontFamily=Helvetica;fontSize=11;fontColor=default;labelBackgroundColor=default;" vertex="1" parent="1">
          <mxGeometry x="519" y="-775" width="140" height="70" as="geometry" />
        </mxCell>
        <mxCell id="PF4e_UDldRz6OcNP83BT-53" value="search admin name or family" style="ellipse;whiteSpace=wrap;html=1;fontFamily=Helvetica;fontSize=11;fontColor=default;labelBackgroundColor=default;" vertex="1" parent="1">
          <mxGeometry x="190" y="-775" width="140" height="70" as="geometry" />
        </mxCell>
        <mxCell id="PF4e_UDldRz6OcNP83BT-63" style="edgeStyle=none;shape=connector;rounded=0;orthogonalLoop=1;jettySize=auto;html=1;exitX=0;exitY=0.3333333333333333;exitDx=0;exitDy=0;exitPerimeter=0;entryX=1;entryY=0.5;entryDx=0;entryDy=0;strokeColor=default;align=center;verticalAlign=middle;fontFamily=Helvetica;fontSize=11;fontColor=default;labelBackgroundColor=default;startFill=0;endArrow=none;" edge="1" parent="1" source="PF4e_UDldRz6OcNP83BT-54" target="PF4e_UDldRz6OcNP83BT-55">
          <mxGeometry relative="1" as="geometry" />
        </mxCell>
        <mxCell id="PF4e_UDldRz6OcNP83BT-66" style="edgeStyle=none;shape=connector;rounded=0;orthogonalLoop=1;jettySize=auto;html=1;exitX=0;exitY=0.3333333333333333;exitDx=0;exitDy=0;exitPerimeter=0;entryX=1;entryY=0.5;entryDx=0;entryDy=0;strokeColor=default;align=center;verticalAlign=middle;fontFamily=Helvetica;fontSize=11;fontColor=default;labelBackgroundColor=default;startFill=0;endArrow=none;" edge="1" parent="1" source="PF4e_UDldRz6OcNP83BT-54" target="PF4e_UDldRz6OcNP83BT-50">
          <mxGeometry relative="1" as="geometry" />
        </mxCell>
        <mxCell id="PF4e_UDldRz6OcNP83BT-71" style="edgeStyle=none;shape=connector;rounded=0;orthogonalLoop=1;jettySize=auto;html=1;exitX=0;exitY=0.3333333333333333;exitDx=0;exitDy=0;exitPerimeter=0;entryX=1;entryY=0.5;entryDx=0;entryDy=0;strokeColor=default;align=center;verticalAlign=middle;fontFamily=Helvetica;fontSize=11;fontColor=default;labelBackgroundColor=default;startFill=0;endArrow=none;" edge="1" parent="1" source="PF4e_UDldRz6OcNP83BT-54" target="PF4e_UDldRz6OcNP83BT-49">
          <mxGeometry relative="1" as="geometry" />
        </mxCell>
        <mxCell id="PF4e_UDldRz6OcNP83BT-72" style="edgeStyle=none;shape=connector;rounded=0;orthogonalLoop=1;jettySize=auto;html=1;exitX=0;exitY=0.3333333333333333;exitDx=0;exitDy=0;exitPerimeter=0;entryX=1;entryY=0.5;entryDx=0;entryDy=0;strokeColor=default;align=center;verticalAlign=middle;fontFamily=Helvetica;fontSize=11;fontColor=default;labelBackgroundColor=default;startFill=0;endArrow=none;" edge="1" parent="1" source="PF4e_UDldRz6OcNP83BT-54" target="PF4e_UDldRz6OcNP83BT-51">
          <mxGeometry relative="1" as="geometry" />
        </mxCell>
        <mxCell id="PF4e_UDldRz6OcNP83BT-76" style="edgeStyle=none;shape=connector;rounded=0;orthogonalLoop=1;jettySize=auto;html=1;exitX=0;exitY=0.3333333333333333;exitDx=0;exitDy=0;exitPerimeter=0;entryX=1;entryY=0.5;entryDx=0;entryDy=0;strokeColor=default;align=center;verticalAlign=middle;fontFamily=Helvetica;fontSize=11;fontColor=default;labelBackgroundColor=default;startFill=0;endArrow=none;" edge="1" parent="1" source="PF4e_UDldRz6OcNP83BT-54" target="PF4e_UDldRz6OcNP83BT-52">
          <mxGeometry relative="1" as="geometry" />
        </mxCell>
        <mxCell id="PF4e_UDldRz6OcNP83BT-54" value="administrator" style="shape=umlActor;verticalLabelPosition=bottom;verticalAlign=top;html=1;" vertex="1" parent="1">
          <mxGeometry x="817" y="-1207.5" width="30" height="60" as="geometry" />
        </mxCell>
        <mxCell id="PF4e_UDldRz6OcNP83BT-55" value="add permission" style="ellipse;whiteSpace=wrap;html=1;" vertex="1" parent="1">
          <mxGeometry x="498" y="-1618" width="140" height="70" as="geometry" />
        </mxCell>
        <mxCell id="PF4e_UDldRz6OcNP83BT-56" value="edit permission" style="ellipse;whiteSpace=wrap;html=1;" vertex="1" parent="1">
          <mxGeometry x="273" y="-1618" width="140" height="70" as="geometry" />
        </mxCell>
        <mxCell id="PF4e_UDldRz6OcNP83BT-57" value="delete role" style="ellipse;whiteSpace=wrap;html=1;" vertex="1" parent="1">
          <mxGeometry x="294" y="-1056" width="140" height="70" as="geometry" />
        </mxCell>
        <mxCell id="PF4e_UDldRz6OcNP83BT-58" value="edit role" style="ellipse;whiteSpace=wrap;html=1;" vertex="1" parent="1">
          <mxGeometry x="273" y="-1296" width="140" height="70" as="geometry" />
        </mxCell>
        <mxCell id="PF4e_UDldRz6OcNP83BT-59" value="edit admin" style="ellipse;whiteSpace=wrap;html=1;fontFamily=Helvetica;fontSize=11;fontColor=default;labelBackgroundColor=default;" vertex="1" parent="1">
          <mxGeometry x="294" y="-902" width="140" height="70" as="geometry" />
        </mxCell>
        <mxCell id="PF4e_UDldRz6OcNP83BT-60" value="delete admin" style="ellipse;whiteSpace=wrap;html=1;fontFamily=Helvetica;fontSize=11;fontColor=default;labelBackgroundColor=default;" vertex="1" parent="1">
          <mxGeometry x="294" y="-661" width="140" height="70" as="geometry" />
        </mxCell>
        <mxCell id="PF4e_UDldRz6OcNP83BT-61" value="Extends" style="endArrow=block;endSize=16;endFill=0;html=1;rounded=0;strokeColor=default;align=center;verticalAlign=middle;fontFamily=Helvetica;fontSize=11;fontColor=default;labelBackgroundColor=default;entryX=0;entryY=0.5;entryDx=0;entryDy=0;exitX=1;exitY=0.5;exitDx=0;exitDy=0;" edge="1" parent="1" source="PF4e_UDldRz6OcNP83BT-56" target="PF4e_UDldRz6OcNP83BT-50">
          <mxGeometry width="160" relative="1" as="geometry">
            <mxPoint x="357" y="-1337" as="sourcePoint" />
            <mxPoint x="517" y="-1337" as="targetPoint" />
          </mxGeometry>
        </mxCell>
        <mxCell id="PF4e_UDldRz6OcNP83BT-62" value="Extends" style="endArrow=block;endSize=16;endFill=0;html=1;rounded=0;strokeColor=default;align=center;verticalAlign=middle;fontFamily=Helvetica;fontSize=11;fontColor=default;labelBackgroundColor=default;entryX=0;entryY=0.5;entryDx=0;entryDy=0;exitX=1;exitY=0.5;exitDx=0;exitDy=0;" edge="1" parent="1" source="PF4e_UDldRz6OcNP83BT-48" target="PF4e_UDldRz6OcNP83BT-50">
          <mxGeometry width="160" relative="1" as="geometry">
            <mxPoint x="352" y="-1475" as="sourcePoint" />
            <mxPoint x="413" y="-1475" as="targetPoint" />
          </mxGeometry>
        </mxCell>
        <mxCell id="PF4e_UDldRz6OcNP83BT-64" value="search permission by name" style="ellipse;whiteSpace=wrap;html=1;fontFamily=Helvetica;fontSize=11;fontColor=default;labelBackgroundColor=default;" vertex="1" parent="1">
          <mxGeometry x="190" y="-1509" width="140" height="70" as="geometry" />
        </mxCell>
        <mxCell id="PF4e_UDldRz6OcNP83BT-65" value="Extends" style="endArrow=block;endSize=16;endFill=0;html=1;rounded=0;strokeColor=default;align=center;verticalAlign=middle;fontFamily=Helvetica;fontSize=11;fontColor=default;labelBackgroundColor=default;entryX=0;entryY=0.5;entryDx=0;entryDy=0;exitX=1;exitY=0.5;exitDx=0;exitDy=0;" edge="1" parent="1" source="PF4e_UDldRz6OcNP83BT-64" target="PF4e_UDldRz6OcNP83BT-50">
          <mxGeometry width="160" relative="1" as="geometry">
            <mxPoint x="347" y="-1547" as="sourcePoint" />
            <mxPoint x="432" y="-1414" as="targetPoint" />
          </mxGeometry>
        </mxCell>
        <mxCell id="PF4e_UDldRz6OcNP83BT-67" value="Extends" style="endArrow=block;endSize=16;endFill=0;html=1;rounded=0;strokeColor=default;align=center;verticalAlign=middle;fontFamily=Helvetica;fontSize=11;fontColor=default;labelBackgroundColor=default;entryX=0;entryY=0.5;entryDx=0;entryDy=0;exitX=1;exitY=0.5;exitDx=0;exitDy=0;" edge="1" parent="1" source="PF4e_UDldRz6OcNP83BT-57" target="PF4e_UDldRz6OcNP83BT-51">
          <mxGeometry width="160" relative="1" as="geometry">
            <mxPoint x="357" y="-1116.5" as="sourcePoint" />
            <mxPoint x="442" y="-1207.5" as="targetPoint" />
          </mxGeometry>
        </mxCell>
        <mxCell id="PF4e_UDldRz6OcNP83BT-68" value="search role by name" style="ellipse;whiteSpace=wrap;html=1;" vertex="1" parent="1">
          <mxGeometry x="190" y="-1167" width="140" height="70" as="geometry" />
        </mxCell>
        <mxCell id="PF4e_UDldRz6OcNP83BT-69" value="Extends" style="endArrow=block;endSize=16;endFill=0;html=1;rounded=0;strokeColor=default;align=center;verticalAlign=middle;fontFamily=Helvetica;fontSize=11;fontColor=default;labelBackgroundColor=default;entryX=0;entryY=0.5;entryDx=0;entryDy=0;exitX=1;exitY=0.5;exitDx=0;exitDy=0;" edge="1" parent="1" source="PF4e_UDldRz6OcNP83BT-68" target="PF4e_UDldRz6OcNP83BT-51">
          <mxGeometry width="160" relative="1" as="geometry">
            <mxPoint x="423" y="-1251" as="sourcePoint" />
            <mxPoint x="508" y="-1122" as="targetPoint" />
          </mxGeometry>
        </mxCell>
        <mxCell id="PF4e_UDldRz6OcNP83BT-70" value="Extends" style="endArrow=block;endSize=16;endFill=0;html=1;rounded=0;strokeColor=default;align=center;verticalAlign=middle;fontFamily=Helvetica;fontSize=11;fontColor=default;labelBackgroundColor=default;entryX=0;entryY=0.5;entryDx=0;entryDy=0;exitX=1;exitY=0.5;exitDx=0;exitDy=0;" edge="1" parent="1" source="PF4e_UDldRz6OcNP83BT-58" target="PF4e_UDldRz6OcNP83BT-51">
          <mxGeometry width="160" relative="1" as="geometry">
            <mxPoint x="357" y="-1175" as="sourcePoint" />
            <mxPoint x="525" y="-1175" as="targetPoint" />
          </mxGeometry>
        </mxCell>
        <mxCell id="PF4e_UDldRz6OcNP83BT-73" value="Extends" style="endArrow=block;endSize=16;endFill=0;html=1;rounded=0;strokeColor=default;align=center;verticalAlign=middle;fontFamily=Helvetica;fontSize=11;fontColor=default;labelBackgroundColor=default;entryX=0;entryY=0.5;entryDx=0;entryDy=0;exitX=1;exitY=0.5;exitDx=0;exitDy=0;" edge="1" parent="1" source="PF4e_UDldRz6OcNP83BT-60" target="PF4e_UDldRz6OcNP83BT-52">
          <mxGeometry width="160" relative="1" as="geometry">
            <mxPoint x="444" y="-1011" as="sourcePoint" />
            <mxPoint x="508" y="-1127" as="targetPoint" />
          </mxGeometry>
        </mxCell>
        <mxCell id="PF4e_UDldRz6OcNP83BT-74" value="Extends" style="endArrow=block;endSize=16;endFill=0;html=1;rounded=0;strokeColor=default;align=center;verticalAlign=middle;fontFamily=Helvetica;fontSize=11;fontColor=default;labelBackgroundColor=default;entryX=0;entryY=0.5;entryDx=0;entryDy=0;exitX=1;exitY=0.5;exitDx=0;exitDy=0;" edge="1" parent="1" source="PF4e_UDldRz6OcNP83BT-53" target="PF4e_UDldRz6OcNP83BT-52">
          <mxGeometry width="160" relative="1" as="geometry">
            <mxPoint x="454" y="-1001" as="sourcePoint" />
            <mxPoint x="518" y="-1117" as="targetPoint" />
          </mxGeometry>
        </mxCell>
        <mxCell id="PF4e_UDldRz6OcNP83BT-75" value="Extends" style="endArrow=block;endSize=16;endFill=0;html=1;rounded=0;strokeColor=default;align=center;verticalAlign=middle;fontFamily=Helvetica;fontSize=11;fontColor=default;labelBackgroundColor=default;entryX=0;entryY=0.5;entryDx=0;entryDy=0;exitX=1;exitY=0.5;exitDx=0;exitDy=0;" edge="1" parent="1" source="PF4e_UDldRz6OcNP83BT-59" target="PF4e_UDldRz6OcNP83BT-52">
          <mxGeometry width="160" relative="1" as="geometry">
            <mxPoint x="464" y="-991" as="sourcePoint" />
            <mxPoint x="528" y="-1107" as="targetPoint" />
          </mxGeometry>
        </mxCell>
        <mxCell id="PF4e_UDldRz6OcNP83BT-77" value="point: admin &amp;lt;&amp;nbsp;&lt;span style=&quot;font-size: 12px; text-wrap-mode: nowrap; background-color: rgb(236, 236, 236);&quot;&gt;administrator&lt;/span&gt;" style="shape=hexagon;perimeter=hexagonPerimeter2;whiteSpace=wrap;html=1;fixedSize=1;fontFamily=Helvetica;fontSize=11;fontColor=default;labelBackgroundColor=default;" vertex="1" parent="1">
          <mxGeometry x="199" y="-352" width="478" height="59" as="geometry" />
        </mxCell>
      </root>
    </mxGraphModel>
  </diagram>
</mxfile>
